# xmcd CD database file
#
# Track frame offsets:
#	150
#	11910
#	25950
#	40359
#	53384
#	67448
#	82222
#	96844
#	107780
#	123124
#	143083
#	152757
#
# Disc length: 2306 seconds
#
# Revision: 0
# Processed by: cddbd v1.5.2PL0 Copyright (c) Steve Scherf et al.
# Submitted via: CDex 1.70beta2
#
DISCID=a409000c
DTITLE=Chico Leal and Amigos - Mulher precisa de carinho
DYEAR=2012
DGENRE=Country
TTITLE0=01 Mulher precisa de carinho 
TTITLE1=02 Página Virada 
TTITLE2=03Estrada da Vida 
TTITLE3=04 Fio de Cabelo
TTITLE4=05 No dia em que eu saí de casa
TTITLE5=06 Canarinho Prisioneiro
TTITLE6=07 Filho de Mãe Solteira
TTITLE7=08 Noite Triste
TTITLE8=09 O que tem a Rosa
TTITLE9=10 Boate Azul
TTITLE10=11 Homem de Pedra
TTITLE11=12 Amargurado
EXTD=YEAR: 2012
EXTT0=
EXTT1=
EXTT2=
EXTT3=
EXTT4=
EXTT5=
EXTT6=
EXTT7=
EXTT8=
EXTT9=
EXTT10=
EXTT11=
PLAYORDER=
